<mxfile host="app.diagrams.net" modified="2021-05-30T11:30:30.262Z" agent="5.0 (X11; Linux x86_64) AppleWebKit/537.36 (KHTML, like Gecko) Chrome/87.0.4280.66 Safari/537.36" etag="xprKWFOcZgI0_YyTQWYV" version="14.7.2" type="github">
  <diagram id="kgpKYQtTHZ0yAKxKKP6v" name="Page-1">
    <mxGraphModel dx="1030" dy="594" grid="1" gridSize="10" guides="1" tooltips="1" connect="1" arrows="1" fold="1" page="1" pageScale="1" pageWidth="850" pageHeight="1100" math="0" shadow="0">
      <root>
        <mxCell id="0" />
        <mxCell id="1" parent="0" />
        <mxCell id="nTYyv3R05YOqUs6yer0P-7" value="Loop" style="shape=umlFrame;whiteSpace=wrap;html=1;fontSize=14;" parent="1" vertex="1">
          <mxGeometry x="220" y="282" width="320" height="160" as="geometry" />
        </mxCell>
        <mxCell id="3nuBFxr9cyL0pnOWT2aG-1" value="device" style="shape=umlLifeline;perimeter=lifelinePerimeter;container=1;collapsible=0;recursiveResize=0;rounded=0;shadow=0;strokeWidth=1;fontSize=14;fontStyle=1" parent="1" vertex="1">
          <mxGeometry x="240" y="80" width="100" height="1020" as="geometry" />
        </mxCell>
        <mxCell id="3nuBFxr9cyL0pnOWT2aG-2" value="" style="points=[];perimeter=orthogonalPerimeter;rounded=0;shadow=0;strokeWidth=1;" parent="3nuBFxr9cyL0pnOWT2aG-1" vertex="1">
          <mxGeometry x="45" y="222" width="10" height="210" as="geometry" />
        </mxCell>
        <mxCell id="3nuBFxr9cyL0pnOWT2aG-5" value="server" style="shape=umlLifeline;perimeter=lifelinePerimeter;container=1;collapsible=0;recursiveResize=0;rounded=0;shadow=0;strokeWidth=1;fontSize=14;fontStyle=1" parent="1" vertex="1">
          <mxGeometry x="460" y="80" width="100" height="1020" as="geometry" />
        </mxCell>
        <mxCell id="3nuBFxr9cyL0pnOWT2aG-6" value="" style="points=[];perimeter=orthogonalPerimeter;rounded=0;shadow=0;strokeWidth=1;" parent="3nuBFxr9cyL0pnOWT2aG-5" vertex="1">
          <mxGeometry x="45" y="239.5" width="10" height="81" as="geometry" />
        </mxCell>
        <mxCell id="3nuBFxr9cyL0pnOWT2aG-4" value="" style="points=[];perimeter=orthogonalPerimeter;rounded=0;shadow=0;strokeWidth=1;" parent="1" vertex="1">
          <mxGeometry x="505" y="482" width="10" height="30" as="geometry" />
        </mxCell>
        <mxCell id="nTYyv3R05YOqUs6yer0P-1" value="" style="endArrow=block;html=1;endFill=1;" parent="1" edge="1">
          <mxGeometry width="50" height="50" relative="1" as="geometry">
            <mxPoint x="296" y="320" as="sourcePoint" />
            <mxPoint x="505" y="319.5" as="targetPoint" />
          </mxGeometry>
        </mxCell>
        <mxCell id="nTYyv3R05YOqUs6yer0P-2" value="发送注册信息" style="text;html=1;align=center;verticalAlign=middle;resizable=0;points=[];autosize=1;strokeColor=none;" parent="1" vertex="1">
          <mxGeometry x="360" y="299.5" width="90" height="20" as="geometry" />
        </mxCell>
        <mxCell id="nTYyv3R05YOqUs6yer0P-3" value="设备向服务器&lt;br style=&quot;font-size: 14px;&quot;&gt;发送心跳包" style="rounded=0;whiteSpace=wrap;html=1;fontSize=14;" parent="1" vertex="1">
          <mxGeometry x="80" y="10" width="120" height="60" as="geometry" />
        </mxCell>
        <mxCell id="nTYyv3R05YOqUs6yer0P-4" value="" style="endArrow=open;html=1;endFill=0;exitX=0.9;exitY=0.033;exitDx=0;exitDy=0;exitPerimeter=0;dashed=1;" parent="1" edge="1">
          <mxGeometry width="50" height="50" relative="1" as="geometry">
            <mxPoint x="512" y="400.5" as="sourcePoint" />
            <mxPoint x="298" y="401.49" as="targetPoint" />
          </mxGeometry>
        </mxCell>
        <mxCell id="nTYyv3R05YOqUs6yer0P-5" value="返回信息：等待设备接入" style="text;html=1;align=center;verticalAlign=middle;resizable=0;points=[];autosize=1;strokeColor=none;" parent="1" vertex="1">
          <mxGeometry x="330" y="380.5" width="150" height="20" as="geometry" />
        </mxCell>
        <mxCell id="nTYyv3R05YOqUs6yer0P-6" value="状态码：2" style="text;html=1;align=center;verticalAlign=middle;resizable=0;points=[];autosize=1;strokeColor=none;" parent="1" vertex="1">
          <mxGeometry x="360" y="401.5" width="70" height="20" as="geometry" />
        </mxCell>
        <mxCell id="nTYyv3R05YOqUs6yer0P-9" value="" style="endArrow=open;html=1;endFill=0;exitX=0.9;exitY=0.033;exitDx=0;exitDy=0;exitPerimeter=0;dashed=1;" parent="1" edge="1">
          <mxGeometry width="50" height="50" relative="1" as="geometry">
            <mxPoint x="511" y="512" as="sourcePoint" />
            <mxPoint x="297" y="512.99" as="targetPoint" />
          </mxGeometry>
        </mxCell>
        <mxCell id="nTYyv3R05YOqUs6yer0P-10" value="返回信息：设备已接入" style="text;html=1;align=center;verticalAlign=middle;resizable=0;points=[];autosize=1;strokeColor=none;" parent="1" vertex="1">
          <mxGeometry x="334" y="492" width="140" height="20" as="geometry" />
        </mxCell>
        <mxCell id="nTYyv3R05YOqUs6yer0P-11" value="状态码：1" style="text;html=1;align=center;verticalAlign=middle;resizable=0;points=[];autosize=1;strokeColor=none;" parent="1" vertex="1">
          <mxGeometry x="359" y="514" width="70" height="20" as="geometry" />
        </mxCell>
        <mxCell id="nTYyv3R05YOqUs6yer0P-13" value="" style="html=1;points=[];perimeter=orthogonalPerimeter;fontSize=14;" parent="1" vertex="1">
          <mxGeometry x="285" y="153" width="10" height="50" as="geometry" />
        </mxCell>
        <mxCell id="nTYyv3R05YOqUs6yer0P-14" value="" style="html=1;points=[];perimeter=orthogonalPerimeter;fontSize=14;" parent="1" vertex="1">
          <mxGeometry x="505" y="163" width="10" height="80" as="geometry" />
        </mxCell>
        <mxCell id="nTYyv3R05YOqUs6yer0P-15" value="发送注册信息" style="html=1;verticalAlign=bottom;endArrow=block;dashed=1;fontSize=14;exitX=0;exitY=0;exitDx=0;exitDy=0;" parent="1" source="nTYyv3R05YOqUs6yer0P-14" target="nTYyv3R05YOqUs6yer0P-13" edge="1">
          <mxGeometry relative="1" as="geometry">
            <mxPoint x="440" y="163" as="targetPoint" />
          </mxGeometry>
        </mxCell>
        <mxCell id="nTYyv3R05YOqUs6yer0P-16" value="返回信息：请求失败" style="html=1;verticalAlign=bottom;endArrow=open;dashed=1;endSize=8;exitX=0;exitY=0.95;fontSize=14;entryX=0.49;entryY=0.27;entryDx=0;entryDy=0;entryPerimeter=0;" parent="1" edge="1">
          <mxGeometry relative="1" as="geometry">
            <mxPoint x="289" y="235" as="targetPoint" />
            <mxPoint x="505" y="235" as="sourcePoint" />
          </mxGeometry>
        </mxCell>
        <mxCell id="nTYyv3R05YOqUs6yer0P-22" value="" style="html=1;points=[];perimeter=orthogonalPerimeter;fontSize=14;" parent="1" vertex="1">
          <mxGeometry x="285" y="570" width="10" height="30" as="geometry" />
        </mxCell>
        <mxCell id="nTYyv3R05YOqUs6yer0P-23" value="" style="html=1;points=[];perimeter=orthogonalPerimeter;fontSize=14;" parent="1" vertex="1">
          <mxGeometry x="505" y="580" width="10" height="40" as="geometry" />
        </mxCell>
        <mxCell id="nTYyv3R05YOqUs6yer0P-24" value="发送心跳包" style="html=1;verticalAlign=bottom;endArrow=block;dashed=1;fontSize=14;exitX=0;exitY=0;exitDx=0;exitDy=0;" parent="1" source="nTYyv3R05YOqUs6yer0P-23" target="nTYyv3R05YOqUs6yer0P-22" edge="1">
          <mxGeometry relative="1" as="geometry">
            <mxPoint x="440" y="580" as="targetPoint" />
          </mxGeometry>
        </mxCell>
        <mxCell id="nTYyv3R05YOqUs6yer0P-25" value="返回信息：成功" style="html=1;verticalAlign=bottom;endArrow=open;dashed=1;endSize=8;exitX=0;exitY=0.95;fontSize=14;entryX=0.49;entryY=0.27;entryDx=0;entryDy=0;entryPerimeter=0;" parent="1" edge="1">
          <mxGeometry relative="1" as="geometry">
            <mxPoint x="289" y="622" as="targetPoint" />
            <mxPoint x="505" y="622" as="sourcePoint" />
          </mxGeometry>
        </mxCell>
        <mxCell id="nTYyv3R05YOqUs6yer0P-26" value="状态码：1" style="text;html=1;align=center;verticalAlign=middle;resizable=0;points=[];autosize=1;strokeColor=none;" parent="1" vertex="1">
          <mxGeometry x="360" y="623" width="70" height="20" as="geometry" />
        </mxCell>
        <mxCell id="nTYyv3R05YOqUs6yer0P-37" value="" style="html=1;points=[];perimeter=orthogonalPerimeter;fontSize=14;" parent="1" vertex="1">
          <mxGeometry x="285" y="670" width="10" height="30" as="geometry" />
        </mxCell>
        <mxCell id="nTYyv3R05YOqUs6yer0P-38" value="" style="html=1;points=[];perimeter=orthogonalPerimeter;fontSize=14;" parent="1" vertex="1">
          <mxGeometry x="505" y="680" width="10" height="40" as="geometry" />
        </mxCell>
        <mxCell id="nTYyv3R05YOqUs6yer0P-39" value="发送心跳包" style="html=1;verticalAlign=bottom;endArrow=block;dashed=1;fontSize=14;exitX=0;exitY=0;exitDx=0;exitDy=0;" parent="1" source="nTYyv3R05YOqUs6yer0P-38" target="nTYyv3R05YOqUs6yer0P-37" edge="1">
          <mxGeometry relative="1" as="geometry">
            <mxPoint x="440" y="680" as="targetPoint" />
          </mxGeometry>
        </mxCell>
        <mxCell id="nTYyv3R05YOqUs6yer0P-40" value="返回信息：成功" style="html=1;verticalAlign=bottom;endArrow=open;dashed=1;endSize=8;exitX=0;exitY=0.95;fontSize=14;entryX=0.49;entryY=0.27;entryDx=0;entryDy=0;entryPerimeter=0;" parent="1" edge="1">
          <mxGeometry relative="1" as="geometry">
            <mxPoint x="289" y="722" as="targetPoint" />
            <mxPoint x="505" y="722" as="sourcePoint" />
          </mxGeometry>
        </mxCell>
        <mxCell id="nTYyv3R05YOqUs6yer0P-41" value="状态码：1" style="text;html=1;align=center;verticalAlign=middle;resizable=0;points=[];autosize=1;strokeColor=none;" parent="1" vertex="1">
          <mxGeometry x="360" y="723" width="70" height="20" as="geometry" />
        </mxCell>
        <mxCell id="nTYyv3R05YOqUs6yer0P-42" value="" style="endArrow=none;dashed=1;html=1;fontSize=14;" parent="1" edge="1">
          <mxGeometry width="50" height="50" relative="1" as="geometry">
            <mxPoint x="515" y="580" as="sourcePoint" />
            <mxPoint x="645" y="580" as="targetPoint" />
          </mxGeometry>
        </mxCell>
        <mxCell id="nTYyv3R05YOqUs6yer0P-43" value="" style="endArrow=none;dashed=1;html=1;fontSize=14;" parent="1" edge="1">
          <mxGeometry width="50" height="50" relative="1" as="geometry">
            <mxPoint x="515" y="679.9999999999998" as="sourcePoint" />
            <mxPoint x="645" y="679.9999999999998" as="targetPoint" />
          </mxGeometry>
        </mxCell>
        <mxCell id="nTYyv3R05YOqUs6yer0P-44" value="" style="endArrow=classic;startArrow=classic;html=1;dashed=1;fontSize=14;" parent="1" edge="1">
          <mxGeometry width="50" height="50" relative="1" as="geometry">
            <mxPoint x="640" y="680" as="sourcePoint" />
            <mxPoint x="640" y="580" as="targetPoint" />
          </mxGeometry>
        </mxCell>
        <mxCell id="nTYyv3R05YOqUs6yer0P-45" value="定时 t 收到&lt;br&gt;心跳包" style="text;html=1;align=center;verticalAlign=middle;resizable=0;points=[];autosize=1;strokeColor=none;fontSize=14;" parent="1" vertex="1">
          <mxGeometry x="550" y="613" width="80" height="40" as="geometry" />
        </mxCell>
        <mxCell id="nTYyv3R05YOqUs6yer0P-46" value="" style="html=1;points=[];perimeter=orthogonalPerimeter;fontSize=14;" parent="1" vertex="1">
          <mxGeometry x="285" y="770" width="10" height="30" as="geometry" />
        </mxCell>
        <mxCell id="nTYyv3R05YOqUs6yer0P-47" value="" style="html=1;points=[];perimeter=orthogonalPerimeter;fontSize=14;" parent="1" vertex="1">
          <mxGeometry x="505" y="780" width="10" height="40" as="geometry" />
        </mxCell>
        <mxCell id="nTYyv3R05YOqUs6yer0P-48" value="发送心跳包" style="html=1;verticalAlign=bottom;endArrow=block;dashed=1;fontSize=14;exitX=0;exitY=0;exitDx=0;exitDy=0;" parent="1" source="nTYyv3R05YOqUs6yer0P-47" target="nTYyv3R05YOqUs6yer0P-46" edge="1">
          <mxGeometry relative="1" as="geometry">
            <mxPoint x="440" y="780" as="targetPoint" />
          </mxGeometry>
        </mxCell>
        <mxCell id="nTYyv3R05YOqUs6yer0P-49" value="返回信息：成功" style="html=1;verticalAlign=bottom;endArrow=open;dashed=1;endSize=8;exitX=0;exitY=0.95;fontSize=14;entryX=0.49;entryY=0.27;entryDx=0;entryDy=0;entryPerimeter=0;" parent="1" edge="1">
          <mxGeometry relative="1" as="geometry">
            <mxPoint x="289" y="822" as="targetPoint" />
            <mxPoint x="505" y="822" as="sourcePoint" />
          </mxGeometry>
        </mxCell>
        <mxCell id="nTYyv3R05YOqUs6yer0P-50" value="状态码：1" style="text;html=1;align=center;verticalAlign=middle;resizable=0;points=[];autosize=1;strokeColor=none;" parent="1" vertex="1">
          <mxGeometry x="360" y="823" width="70" height="20" as="geometry" />
        </mxCell>
        <mxCell id="nTYyv3R05YOqUs6yer0P-56" value="" style="endArrow=none;dashed=1;html=1;fontSize=14;" parent="1" edge="1">
          <mxGeometry width="50" height="50" relative="1" as="geometry">
            <mxPoint x="515" y="679.9999999999998" as="sourcePoint" />
            <mxPoint x="645" y="679.9999999999998" as="targetPoint" />
          </mxGeometry>
        </mxCell>
        <mxCell id="nTYyv3R05YOqUs6yer0P-57" value="" style="endArrow=none;dashed=1;html=1;fontSize=14;" parent="1" edge="1">
          <mxGeometry width="50" height="50" relative="1" as="geometry">
            <mxPoint x="515" y="779.9999999999998" as="sourcePoint" />
            <mxPoint x="645" y="779.9999999999998" as="targetPoint" />
          </mxGeometry>
        </mxCell>
        <mxCell id="nTYyv3R05YOqUs6yer0P-58" value="" style="endArrow=classic;startArrow=classic;html=1;dashed=1;fontSize=14;" parent="1" edge="1">
          <mxGeometry width="50" height="50" relative="1" as="geometry">
            <mxPoint x="640" y="779.9999999999998" as="sourcePoint" />
            <mxPoint x="640" y="679.9999999999998" as="targetPoint" />
          </mxGeometry>
        </mxCell>
        <mxCell id="nTYyv3R05YOqUs6yer0P-59" value="定时 t 收到&lt;br&gt;心跳包" style="text;html=1;align=center;verticalAlign=middle;resizable=0;points=[];autosize=1;strokeColor=none;fontSize=14;" parent="1" vertex="1">
          <mxGeometry x="550" y="713" width="80" height="40" as="geometry" />
        </mxCell>
        <mxCell id="nTYyv3R05YOqUs6yer0P-61" value=".&lt;br style=&quot;font-size: 16px;&quot;&gt;.&lt;br style=&quot;font-size: 16px;&quot;&gt;." style="text;html=1;align=center;verticalAlign=middle;resizable=0;points=[];autosize=1;strokeColor=none;fontSize=16;fontStyle=1;spacing=2;" parent="1" vertex="1">
          <mxGeometry x="384" y="843" width="20" height="70" as="geometry" />
        </mxCell>
        <mxCell id="nTYyv3R05YOqUs6yer0P-64" value="" style="endArrow=none;dashed=1;html=1;fontSize=14;" parent="1" edge="1">
          <mxGeometry width="50" height="50" relative="1" as="geometry">
            <mxPoint x="515" y="912.9999999999998" as="sourcePoint" />
            <mxPoint x="645" y="912.9999999999998" as="targetPoint" />
          </mxGeometry>
        </mxCell>
        <mxCell id="nTYyv3R05YOqUs6yer0P-65" value="" style="endArrow=none;dashed=1;html=1;fontSize=14;" parent="1" edge="1">
          <mxGeometry width="50" height="50" relative="1" as="geometry">
            <mxPoint x="515" y="912.9999999999998" as="sourcePoint" />
            <mxPoint x="645" y="912.9999999999998" as="targetPoint" />
          </mxGeometry>
        </mxCell>
        <mxCell id="nTYyv3R05YOqUs6yer0P-66" value="" style="endArrow=none;dashed=1;html=1;fontSize=14;" parent="1" edge="1">
          <mxGeometry width="50" height="50" relative="1" as="geometry">
            <mxPoint x="515" y="1036.9999999999998" as="sourcePoint" />
            <mxPoint x="645" y="1036.9999999999998" as="targetPoint" />
          </mxGeometry>
        </mxCell>
        <mxCell id="nTYyv3R05YOqUs6yer0P-67" value="" style="endArrow=classic;startArrow=classic;html=1;dashed=1;fontSize=14;" parent="1" edge="1">
          <mxGeometry width="50" height="50" relative="1" as="geometry">
            <mxPoint x="640" y="1040" as="sourcePoint" />
            <mxPoint x="640" y="913.9999999999998" as="targetPoint" />
          </mxGeometry>
        </mxCell>
        <mxCell id="nTYyv3R05YOqUs6yer0P-68" value="定时 T (3t)&amp;nbsp;&lt;br&gt;未收到心跳包" style="text;html=1;align=center;verticalAlign=middle;resizable=0;points=[];autosize=1;strokeColor=none;fontSize=14;" parent="1" vertex="1">
          <mxGeometry x="540" y="953" width="100" height="40" as="geometry" />
        </mxCell>
        <mxCell id="nTYyv3R05YOqUs6yer0P-70" value="" style="html=1;points=[];perimeter=orthogonalPerimeter;fontSize=16;" parent="1" vertex="1">
          <mxGeometry x="505" y="1058" width="10" height="27" as="geometry" />
        </mxCell>
        <mxCell id="nTYyv3R05YOqUs6yer0P-71" value="设备掉线" style="edgeStyle=orthogonalEdgeStyle;html=1;align=left;spacingLeft=2;endArrow=block;rounded=0;entryX=1;entryY=0;dashed=1;fontSize=16;" parent="1" target="nTYyv3R05YOqUs6yer0P-70" edge="1">
          <mxGeometry relative="1" as="geometry">
            <mxPoint x="510" y="1038" as="sourcePoint" />
            <Array as="points">
              <mxPoint x="540" y="1038" />
            </Array>
          </mxGeometry>
        </mxCell>
        <mxCell id="t6g0I99Wb7of1gL_Czxm-1" value="状态码：0" style="text;html=1;align=center;verticalAlign=middle;resizable=0;points=[];autosize=1;strokeColor=none;" vertex="1" parent="1">
          <mxGeometry x="359" y="240" width="70" height="20" as="geometry" />
        </mxCell>
      </root>
    </mxGraphModel>
  </diagram>
</mxfile>
